<svg width="64" height="64" viewBox="0 0 64 64" fill="none" xmlns="http://www.w3.org/2000/svg">
<path d="M21.2444 12.0889C24.6777 12.0889 27.4809 14.7926 27.6373 18.1874L27.6444 18.4889V25.1705L35.3316 19.4788C35.798 19.1332 36.4224 19.1104 36.9088 19.402L37.0667 19.5115L44.7111 25.6285V20.6223H47.5556V27.904L51.2889 30.8893L49.5111 33.1108L47.5556 31.5449L47.5541 37.6889H50.4C51.1296 37.6889 51.7312 38.2379 51.8123 38.9447L51.8222 39.1112V50.4889C51.8222 51.2185 51.2732 51.8201 50.5664 51.9012L50.4 51.9112H12V49.0667H22.7307L25.2196 46.2223H12V43.3778H27.6444V43.4518L30.1973 40.5334H12V37.6889H14.8444V18.4889C14.8444 14.9547 17.7102 12.0889 21.2444 12.0889ZM38.7307 40.5334H33.9776L26.5109 49.0667H31.264L38.7307 40.5334ZM48.9778 42.8943L43.5776 49.0667H48.9778V42.8943ZM47.264 40.5334H42.5109L35.0443 49.0667H39.7973L47.264 40.5334ZM44.7111 29.2694L36.1436 22.4157L27.6444 28.7104V37.6889H31.9097L31.9111 32C31.9111 31.2704 32.4601 30.6688 33.1669 30.5878L33.3333 30.5778H39.0222C39.7518 30.5778 40.3534 31.1268 40.4345 31.8336L40.4444 32L40.443 37.6889H44.7097L44.7111 29.2694ZM21.2444 14.9334C19.36 14.9334 17.8169 16.4011 17.696 18.2557L17.6889 18.4889V37.6889H24.8V18.4889C24.8 16.5248 23.2085 14.9334 21.2444 14.9334ZM37.6 33.4223H34.7556V37.6889H37.6V33.4223Z" fill="#717171"/>
</svg>
