<svg width="64" height="64" viewBox="0 0 64 64" fill="none" xmlns="http://www.w3.org/2000/svg">
<path d="M48.3555 12.0889C49.8545 12.0889 51.0833 13.2495 51.1928 14.7215L51.1999 14.9334V49.0667C51.1999 50.5657 50.0394 51.7945 48.5674 51.9026L48.3555 51.9112H14.2221C12.7231 51.9112 11.4943 50.7506 11.3848 49.2786L11.3777 49.0667V14.9334C11.3777 13.4344 12.5382 12.2056 14.0102 12.096L14.2221 12.0889H48.3555ZM31.2888 19.0792L26.8998 23.4667H14.2221V49.0667H25.5999V41.9556C25.5999 40.4566 26.7604 39.2278 28.2324 39.1183L28.4444 39.1112H34.1332C35.6323 39.1112 36.8611 40.2717 36.9706 41.7437L36.9777 41.9556V49.0667H48.3555V23.4667H35.6778L31.2888 19.0792ZM34.1332 41.9556H28.4444V49.0667H34.1332V41.9556ZM42.6666 39.1112C43.4516 39.1112 44.0888 39.7483 44.0888 40.5334C44.0888 41.3184 43.4516 41.9556 42.6666 41.9556C41.8815 41.9556 41.2444 41.3184 41.2444 40.5334C41.2444 39.7483 41.8815 39.1112 42.6666 39.1112ZM19.911 39.1112C20.6961 39.1112 21.3332 39.7483 21.3332 40.5334C21.3332 41.3184 20.6961 41.9556 19.911 41.9556C19.126 41.9556 18.4888 41.3184 18.4888 40.5334C18.4888 39.7483 19.126 39.1112 19.911 39.1112ZM42.6666 33.4223C43.4516 33.4223 44.0888 34.0594 44.0888 34.8445C44.0888 35.6296 43.4516 36.2667 42.6666 36.2667C41.8815 36.2667 41.2444 35.6296 41.2444 34.8445C41.2444 34.0594 41.8815 33.4223 42.6666 33.4223ZM19.911 33.4223C20.6961 33.4223 21.3332 34.0594 21.3332 34.8445C21.3332 35.6296 20.6961 36.2667 19.911 36.2667C19.126 36.2667 18.4888 35.6296 18.4888 34.8445C18.4888 34.0594 19.126 33.4223 19.911 33.4223ZM42.6666 27.7334C43.4516 27.7334 44.0888 28.3705 44.0888 29.1556C44.0888 29.9407 43.4516 30.5778 42.6666 30.5778C41.8815 30.5778 41.2444 29.9407 41.2444 29.1556C41.2444 28.3705 41.8815 27.7334 42.6666 27.7334ZM31.2888 27.7334C32.0739 27.7334 32.711 28.3705 32.711 29.1556C32.711 29.9407 32.0739 30.5778 31.2888 30.5778C30.5037 30.5778 29.8666 29.9407 29.8666 29.1556C29.8666 28.3705 30.5037 27.7334 31.2888 27.7334ZM19.911 27.7334C20.6961 27.7334 21.3332 28.3705 21.3332 29.1556C21.3332 29.9407 20.6961 30.5778 19.911 30.5778C19.126 30.5778 18.4888 29.9407 18.4888 29.1556C18.4888 28.3705 19.126 27.7334 19.911 27.7334ZM48.3555 20.6223V14.9334H14.2221V20.6223H25.7194L29.2778 17.0667C30.3302 16.0143 32.0013 15.9588 33.1192 16.9003L33.2998 17.0667L36.8568 20.6223H48.3555Z" fill="#717171"/>
</svg>
