<svg width="157" height="55" viewBox="0 0 157 55" fill="none" xmlns="http://www.w3.org/2000/svg">
<g clip-path="url(#clip0_2_118)">
<path d="M31.2359 6H4.61317C2.06946 6 0 8.08696 0 10.6522V29.8478C0 29.8913 0 29.913 0 29.9565C0.0215569 34.2826 5.25988 36.3696 8.27784 33.3043L18.9269 22.4348L11.7916 18L13.5808 16.1957L22.1389 19.0435L25.6096 15.413C26.1701 14.8261 27.0754 14.6739 27.7437 15.1304C28.6491 15.7391 28.7353 17 27.9808 17.7174L24.3377 21.2609L27.1617 29.8913L25.3725 31.6957L20.9749 24.4783L12.0072 33.8696C6.98443 39.1304 10.606 47.9348 17.8275 48C17.8922 48 17.9353 48 18 48C27.9377 48 36 39.8696 36 29.8478V10.8043C36 8.15217 33.8659 6 31.2359 6Z" fill="#008F8C"/>
</g>
<path d="M57.8427 39V18.0285H63.5088V39H57.8427ZM50.7601 18.7195V13.7789H70.626V18.7195H50.7601ZM72.7322 39V20.0669H77.12V28.186H77.0163C77.0163 25.5142 77.5806 23.4527 78.7092 22.0017C79.8609 20.5506 81.5193 19.8251 83.6844 19.8251H84.4099V24.5929H83.0279C81.5078 24.5929 80.3331 25.0075 79.5039 25.8367C78.6747 26.6428 78.2601 27.8175 78.2601 29.3607V39H72.7322ZM88.1723 39V20.0669H93.7002V39H88.1723ZM85.6502 24.1437V20.0669H93.7002V24.1437H85.6502ZM90.3144 18.2012C89.2779 18.2012 88.5063 17.9363 87.9995 17.4066C87.5158 16.8538 87.274 16.1628 87.274 15.3336C87.274 14.4814 87.5158 13.7904 87.9995 13.2607C88.5063 12.7079 89.2779 12.4315 90.3144 12.4315C91.3508 12.4315 92.1109 12.7079 92.5946 13.2607C93.1013 13.7904 93.3547 14.4814 93.3547 15.3336C93.3547 16.1628 93.1013 16.8538 92.5946 17.4066C92.1109 17.9363 91.3508 18.2012 90.3144 18.2012ZM98.813 45.9099V20.0669H103.201V28.2551L102.613 28.2206C102.706 26.3319 103.097 24.7426 103.788 23.4527C104.479 22.1399 105.412 21.161 106.587 20.516C107.761 19.8481 109.086 19.5141 110.56 19.5141C111.873 19.5141 113.059 19.756 114.118 20.2396C115.201 20.7233 116.122 21.4028 116.882 22.2781C117.665 23.1303 118.253 24.1437 118.644 25.3184C119.059 26.4701 119.266 27.7369 119.266 29.1189V29.9135C119.266 31.2724 119.07 32.5508 118.679 33.7485C118.287 34.9232 117.712 35.9481 116.951 36.8234C116.214 37.6986 115.305 38.3896 114.222 38.8964C113.163 39.38 111.942 39.6219 110.56 39.6219C109.132 39.6219 107.842 39.334 106.69 38.7582C105.562 38.1593 104.652 37.261 103.961 36.0633C103.27 34.8425 102.89 33.2993 102.821 31.4337L104.341 33.5066V45.9099H98.813ZM109.005 34.9923C109.949 34.9923 110.767 34.7619 111.458 34.3013C112.172 33.8406 112.725 33.1957 113.116 32.3665C113.508 31.5373 113.704 30.5814 113.704 29.4989C113.704 28.4163 113.508 27.472 113.116 26.6658C112.725 25.8597 112.184 25.2378 111.493 24.8002C110.802 24.3395 109.972 24.1092 109.005 24.1092C108.176 24.1092 107.393 24.305 106.656 24.6965C105.919 25.0881 105.32 25.6524 104.859 26.3894C104.422 27.1035 104.203 27.9787 104.203 29.0152V30.2935C104.203 31.284 104.433 32.1362 104.894 32.8502C105.377 33.5412 105.988 34.0709 106.725 34.4395C107.462 34.808 108.222 34.9923 109.005 34.9923ZM124.004 39V20.0669H129.532V39H124.004ZM121.482 24.1437V20.0669H129.532V24.1437H121.482ZM126.146 18.2012C125.109 18.2012 124.338 17.9363 123.831 17.4066C123.347 16.8538 123.106 16.1628 123.106 15.3336C123.106 14.4814 123.347 13.7904 123.831 13.2607C124.338 12.7079 125.109 12.4315 126.146 12.4315C127.182 12.4315 127.942 12.7079 128.426 13.2607C128.933 13.7904 129.186 14.4814 129.186 15.3336C129.186 16.1628 128.933 16.8538 128.426 17.4066C127.942 17.9363 127.182 18.2012 126.146 18.2012ZM143.247 39.2418C141.336 39.2418 139.792 39.0115 138.618 38.5509C137.443 38.0672 136.579 37.2725 136.027 36.1669C135.497 35.0383 135.232 33.5182 135.232 31.6064V14.9536H140.38V31.8137C140.38 32.712 140.61 33.403 141.071 33.8867C141.554 34.3473 142.234 34.5777 143.109 34.5777H145.908V39.2418H143.247ZM132.364 24.1092V20.0669H145.908V24.1092H132.364Z" fill="#27292C"/>
<defs>
<clipPath id="clip0_2_118">
<rect width="36" height="42" fill="white" transform="translate(0 6)"/>
</clipPath>
</defs>
</svg>
