<svg width="60" height="60" viewBox="0 0 60 60" fill="none" xmlns="http://www.w3.org/2000/svg">
<path d="M23.167 26.2333V34.3493" stroke="#717171" stroke-width="2.66667"/>
<path d="M20.5027 39.6746H25.8334V34.3493H20.5027V39.6746Z" stroke="#717171" stroke-width="2.66667" stroke-linecap="round" stroke-linejoin="round"/>
<path d="M37.3334 28.6653V29.332H38.0001L43.3334 29.3333C43.6694 29.3333 43.9481 29.5813 43.9934 29.9053L44.0001 30.0186V42C44.0001 42.336 43.7507 42.6146 43.4281 42.66L43.3134 42.6666H38.0001H37.3334V43.3333C37.3334 45.1026 36.4081 46.7573 34.8027 47.896C33.6014 48.748 32.0934 49.256 30.4827 49.324L30.0947 49.3333H20.6667C17.4427 49.3333 14.8121 46.7893 14.6721 43.6L14.6667 43.3253V26C14.6667 25.664 14.9161 25.3853 15.2387 25.34L15.3521 25.3333H36.6667C37.0027 25.3333 37.2814 25.5813 37.3267 25.9053L37.3334 26.0186V28.6653ZM22.6667 27.332V26.6653H22.0001L16.6667 26.6666H16.0001V27.3333V43.3333C16.0001 45.7266 17.8014 47.6986 20.1227 47.968L20.1321 47.9693L20.1427 47.9706L20.3734 47.9906L20.3934 47.992H20.4121L20.6467 47.9986L20.6574 48H20.6667H30.1027C31.5627 48 32.9494 47.576 34.0307 46.8093C35.1641 46.0053 35.8907 44.8746 35.9881 43.6213L35.9894 43.608L35.9907 43.5946L35.9987 43.3586L36.0001 43.3453V43.3333V27.3333V26.6666H35.3334L24.6667 26.6653H24.0001V27.332M42.6667 31.3333V30.6666H42.0001H38.0001H37.3334V31.3333V40.6666V41.3333H38.0001H42.0001H42.6667V40.6666V31.3333Z" fill="#717171"/>
<path d="M22.6667 27.332V26.6653H22.0001L16.6667 26.6666H16.0001V27.3333V43.3333C16.0001 45.7266 17.8014 47.6986 20.1227 47.968L20.1321 47.9693L20.1427 47.9706L20.3734 47.9906L20.3934 47.992H20.4121L20.6467 47.9986L20.6574 48H20.6667H30.1027C31.5627 48 32.9494 47.576 34.0307 46.8093C35.1641 46.0053 35.8907 44.8746 35.9881 43.6213L35.9894 43.608L35.9907 43.5946L35.9987 43.3586L36.0001 43.3453V43.3333V27.3333V26.6666H35.3334L24.6667 26.6653H24.0001V27.332M37.3334 28.6653V29.332H38.0001L43.3334 29.3333C43.6694 29.3333 43.9481 29.5813 43.9934 29.9053L44.0001 30.0186V42C44.0001 42.336 43.7507 42.6146 43.4281 42.66L43.3134 42.6666H38.0001H37.3334V43.3333C37.3334 45.1026 36.4081 46.7573 34.8027 47.896C33.6014 48.748 32.0934 49.256 30.4827 49.324L30.0947 49.3333H20.6667C17.4427 49.3333 14.8121 46.7893 14.6721 43.6L14.6667 43.3253V26C14.6667 25.664 14.9161 25.3853 15.2387 25.34L15.3521 25.3333H36.6667C37.0027 25.3333 37.2814 25.5813 37.3267 25.9053L37.3334 26.0186V28.6653ZM42.6667 31.3333V30.6666H42.0001H38.0001H37.3334V31.3333V40.6666V41.3333H38.0001H42.0001H42.6667V40.6666V31.3333Z" stroke="#717171" stroke-width="1.33333"/>
<mask id="mask0_74_4672" style="mask-type:alpha" maskUnits="userSpaceOnUse" x="17" y="8" width="24" height="17">
<path d="M24.5 9C24.5 9 24.5 14.1667 21.5 17C18.6613 19.6813 19.5 23.8333 19.5 23.8333" stroke="#FF0000" stroke-width="3.73333"/>
<path d="M31.8454 8.99997C31.8454 8.99997 31.8454 14.1666 28.8454 17C26.0068 19.6813 26.8454 23.8333 26.8454 23.8333" stroke="#FF0000" stroke-width="3.73333"/>
<path d="M38.8667 8.99997C38.8667 8.99997 38.8667 14.1666 35.8667 17C33.028 19.6813 33.8667 23.8333 33.8667 23.8333" stroke="#FF0000" stroke-width="3.73333"/>
</mask>
<g mask="url(#mask0_74_4672)">
<path d="M28.9666 18.0906L28.9613 18.0986L28.5013 18.8359L28.4973 18.8426C27.6133 20.3026 27.0906 21.4253 26.8439 22.6653L25.4813 22.6666C25.7226 21.2093 26.2839 19.9253 27.3466 18.1706L27.8346 17.3839L28.1026 16.9666C28.1026 16.9666 28.1026 16.9666 28.1039 16.9666C29.0399 15.5199 29.6839 14.4093 30.0893 13.3426C30.4266 12.4573 30.5919 11.6199 30.6413 10.6666L31.9773 10.6679C31.8853 12.7639 31.3319 14.2533 29.9759 16.4933L29.4866 17.2786L28.9666 18.0906ZM35.6333 18.0906L35.6279 18.0986L35.1679 18.8359L35.1639 18.8426C34.2799 20.3026 33.7586 21.4253 33.5106 22.6653L32.1479 22.6666C32.3893 21.2093 32.9506 19.9253 34.0133 18.1706L34.5013 17.3839L34.7693 16.9666C34.7693 16.9666 34.7693 16.9666 34.7706 16.9666C35.7066 15.5199 36.3506 14.4093 36.7559 13.3426C37.0933 12.4573 37.2586 11.6199 37.3079 10.6666L38.6439 10.6679C38.5519 12.7639 37.9986 14.2533 36.6426 16.4933L36.1533 17.2786L35.6333 18.0906ZM22.8759 15.8293C22.8759 15.8293 22.8759 15.8306 22.8746 15.8306L22.5533 16.3266V16.3279C21.6199 17.7573 20.9746 18.8666 20.5693 19.9413C20.2306 20.8359 20.0639 21.6906 20.0146 22.6653L18.6799 22.6666C18.7266 21.5733 18.8946 20.6573 19.2133 19.7426C19.5999 18.6373 20.2159 17.5026 21.1586 16.0279L21.4853 15.5239C21.4866 15.5239 21.4866 15.5226 21.4866 15.5226C22.7826 13.5359 23.5079 12.1906 23.8146 10.6666H25.1773C24.9026 12.3053 24.2213 13.7266 22.8759 15.8293Z" fill="#717171"/>
<path d="M28.9666 18.0906L28.9613 18.0986L28.5013 18.8359L28.4973 18.8426C27.6133 20.3026 27.0906 21.4253 26.8439 22.6653L25.4813 22.6666C25.7226 21.2093 26.2839 19.9253 27.3466 18.1706L27.8346 17.3839L28.1026 16.9666C28.1026 16.9666 28.1026 16.9666 28.1039 16.9666C29.0399 15.5199 29.6839 14.4093 30.0893 13.3426C30.4266 12.4573 30.5919 11.6199 30.6413 10.6666L31.9773 10.6679C31.8853 12.7639 31.3319 14.2533 29.9759 16.4933L29.4866 17.2786L28.9666 18.0906ZM35.6333 18.0906L35.6279 18.0986L35.1679 18.8359L35.1639 18.8426C34.2799 20.3026 33.7586 21.4253 33.5106 22.6653L32.1479 22.6666C32.3893 21.2093 32.9506 19.9253 34.0133 18.1706L34.5013 17.3839L34.7693 16.9666C34.7693 16.9666 34.7693 16.9666 34.7706 16.9666C35.7066 15.5199 36.3506 14.4093 36.7559 13.3426C37.0933 12.4573 37.2586 11.6199 37.3079 10.6666L38.6439 10.6679C38.5519 12.7639 37.9986 14.2533 36.6426 16.4933L36.1533 17.2786L35.6333 18.0906ZM22.8759 15.8293C22.8759 15.8293 22.8759 15.8306 22.8746 15.8306L22.5533 16.3266V16.3279C21.6199 17.7573 20.9746 18.8666 20.5693 19.9413C20.2306 20.8359 20.0639 21.6906 20.0146 22.6653L18.6799 22.6666C18.7266 21.5733 18.8946 20.6573 19.2133 19.7426C19.5999 18.6373 20.2159 17.5026 21.1586 16.0279L21.4853 15.5239C21.4866 15.5239 21.4866 15.5226 21.4866 15.5226C22.7826 13.5359 23.5079 12.1906 23.8146 10.6666H25.1773C24.9026 12.3053 24.2213 13.7266 22.8759 15.8293Z" stroke="#717171" stroke-width="1.33333"/>
</g>
</svg>
