<svg width="181" height="60" viewBox="0 0 181 60" fill="none" xmlns="http://www.w3.org/2000/svg">
<path d="M22.6129 11.7212L20.2201 46.6683C20.1782 47.298 19.9473 47.6128 19.5275 47.6128H16.0643C13.7135 47.6128 12.0343 47.151 11.0268 46.2275C10.0194 45.304 9.51561 43.9817 9.51561 42.2605C9.51561 41.6309 9.5366 40.6863 9.57858 39.427C9.66254 38.1676 9.76748 36.6984 9.89342 35.0192C10.0194 33.2981 10.1453 31.4511 10.2712 29.4781C10.4391 27.4631 10.6071 25.4481 10.775 23.4332C10.9429 21.3762 11.0898 19.3403 11.2157 17.3253C11.3837 15.3103 11.5306 13.4423 11.6565 11.7212H1.58168C1.11991 11.7212 0.889032 11.4273 0.889032 10.8396L1.07794 7.31343C1.11991 6.76771 1.20387 6.24298 1.32981 5.73924C1.49772 5.19352 1.74959 4.71077 2.08542 4.29098C2.42125 3.8712 2.84103 3.53537 3.34477 3.2835C3.89049 3.03163 4.54116 2.90569 5.29677 2.90569H33.4434C33.6952 2.90569 33.9261 2.96866 34.136 3.0946C34.3459 3.22053 34.4508 3.45141 34.4508 3.78724L34.199 7.50234C34.115 8.76169 33.7582 9.79017 33.1285 10.5878C32.5408 11.3434 31.3025 11.7212 29.4134 11.7212H22.6129ZM53.7116 28.0298C53.4597 28.0298 53.1659 28.0298 52.83 28.0298C52.5362 27.9878 52.2423 27.9459 51.9485 27.9039C51.6546 27.8199 51.4028 27.736 51.1929 27.652C50.983 27.5261 50.878 27.3792 50.878 27.2112C50.878 26.6655 50.899 26.1618 50.941 25.7C50.983 25.2383 51.004 24.7555 51.004 24.2518C51.004 23.3282 50.878 22.5726 50.6262 21.9849C50.3743 21.3972 49.8706 21.1034 49.1149 21.1034C47.9395 21.1034 46.9531 21.88 46.1555 23.4332C45.3998 24.9444 44.9171 27.2322 44.7072 30.2967C44.6232 31.64 44.4973 33.1722 44.3294 34.8933C44.2035 36.5724 44.0775 38.2096 43.9516 39.8048C43.8257 41.358 43.7207 42.7433 43.6368 43.9607C43.5528 45.178 43.5108 45.9756 43.5108 46.3534C43.5108 46.7732 43.3639 47.0881 43.07 47.298C42.7762 47.5078 42.4614 47.6128 42.1255 47.6128H39.8587C38.5574 47.6128 37.4869 47.4869 36.6473 47.235C35.8497 46.9411 35.1991 46.5423 34.6953 46.0386C34.2336 45.5349 33.8977 44.9262 33.6878 44.2125C33.5199 43.4569 33.436 42.5964 33.436 41.6309C33.436 41.0012 33.457 40.1196 33.4989 38.9862C33.5829 37.8108 33.7088 36.2156 33.8767 34.2007C34.0447 32.1437 34.2336 29.562 34.4435 26.4556C34.6953 23.3072 34.9892 19.4242 35.325 14.8066C35.409 13.5892 35.8497 12.9805 36.6473 12.9805H39.1031C40.2785 12.9805 41.265 13.1065 42.0626 13.3583C42.8601 13.6102 43.5108 13.967 44.0146 14.4288C44.5183 14.8486 44.8751 15.3523 45.085 15.94C45.3369 16.5277 45.5048 17.1364 45.5888 17.7661C46.0925 16.8006 46.6802 15.982 47.3518 15.3103C48.0655 14.5967 48.8001 14.03 49.5557 13.6102C50.3113 13.1484 51.0879 12.8336 51.8855 12.6657C52.6831 12.4558 53.4177 12.3509 54.0894 12.3509C54.887 12.3509 55.6846 12.4978 56.4822 12.7916C57.3217 13.0855 58.0774 13.5263 58.749 14.114C59.4207 14.7017 59.9454 15.4573 60.3232 16.3808C60.743 17.3043 60.9529 18.3958 60.9529 19.6551C60.9529 20.7885 60.785 21.859 60.4491 22.8665C60.1133 23.874 59.6306 24.7765 59.0009 25.5741C58.3712 26.3297 57.5946 26.9384 56.6711 27.4001C55.7895 27.8199 54.803 28.0298 53.7116 28.0298ZM69.9897 47.6128C68.6884 47.6128 67.6179 47.4869 66.7784 47.235C65.9808 46.9411 65.3301 46.5423 64.8264 46.0386C64.3646 45.5349 64.0288 44.9262 63.8189 44.2125C63.651 43.4569 63.567 42.5964 63.567 41.6309C63.567 41.0012 63.588 40.1196 63.63 38.9862C63.7139 37.8108 63.8399 36.2156 64.0078 34.2007C64.1757 32.1437 64.3646 29.562 64.5745 26.4556C64.8264 23.3072 65.1202 19.4242 65.4561 14.8066C65.498 13.8831 65.603 13.3373 65.7709 13.1694C65.8968 13.0435 66.2327 12.9805 66.7784 12.9805H69.2341C70.5355 12.9805 71.5849 13.1065 72.3825 13.3583C73.2221 13.6102 73.8727 13.988 74.3345 14.4918C74.8383 14.9955 75.1741 15.6042 75.342 16.3178C75.5519 17.0315 75.6568 17.829 75.6568 18.7106C75.6568 19.3403 75.6149 20.2848 75.5309 21.5441C75.4469 22.8035 75.321 24.5246 75.1531 26.7075C75.0272 28.8484 74.8383 31.535 74.5864 34.7674C74.3345 37.9577 74.0197 41.8198 73.6419 46.3534C73.5999 46.8572 73.4949 47.193 73.327 47.3609C73.1591 47.5288 72.8023 47.6128 72.2566 47.6128H69.9897ZM65.519 5.55034C65.519 3.8712 66.1277 2.54888 67.3451 1.58337C68.5625 0.617867 70.1996 0.135114 72.2566 0.135114C74.0616 0.135114 75.363 0.51292 76.1606 1.26853C77.0001 1.98217 77.4199 2.94767 77.4199 4.16505C77.4199 5.71825 76.8322 7.01959 75.6568 8.06905C74.5234 9.07653 72.8443 9.58027 70.6194 9.58027C67.2192 9.58027 65.519 8.23696 65.519 5.55034ZM103.001 12.3509C106.947 12.3509 109.906 13.5682 111.879 16.003C113.894 18.4377 114.901 22.2788 114.901 27.5261C114.901 30.8004 114.524 33.7179 113.768 36.2786C113.012 38.8393 111.963 41.0222 110.62 42.8272C109.276 44.5903 107.702 45.9337 105.897 46.8572C104.092 47.7807 102.14 48.2425 100.041 48.2425C97.8162 48.2425 96.0741 47.7597 94.8148 46.7942C93.5554 45.8287 92.5689 44.4644 91.8553 42.7013C91.7293 44.2125 91.6244 45.3669 91.5404 46.1645C91.4565 46.9621 91.3935 47.5918 91.3515 48.0536C91.3096 48.5573 91.2676 48.9981 91.2256 49.3759C91.2256 49.7537 91.1836 50.2574 91.0997 50.8871C91.0577 51.5168 90.9947 52.3774 90.9108 53.4688C90.8268 54.5602 90.7009 56.0715 90.533 58.0025C90.491 58.5062 90.386 58.842 90.2181 59.01C90.0502 59.1779 89.6934 59.2618 89.1477 59.2618H86.8808C85.5795 59.2618 84.509 59.1149 83.6695 58.8211C82.8719 58.5692 82.2212 58.1914 81.7175 57.6876C81.2557 57.1839 80.9199 56.5542 80.71 55.7986C80.5421 55.085 80.4581 54.2454 80.4581 53.2799C80.4581 52.8601 80.5211 51.7267 80.647 49.8796C80.773 48.0326 80.9199 45.8287 81.0878 43.268C81.2977 40.6654 81.5076 37.8738 81.7175 34.8933C81.9693 31.9128 82.2002 29.0793 82.4101 26.3927C82.62 23.6641 82.7879 21.2503 82.9139 19.1514C83.0818 17.0524 83.2077 15.6042 83.2917 14.8066C83.3336 13.8831 83.4386 13.3373 83.6065 13.1694C83.7324 13.0435 84.0683 12.9805 84.614 12.9805H87.0697C89.3366 12.9805 90.9737 13.4633 91.9812 14.4288C93.0307 15.3523 93.5554 16.4647 93.5554 17.7661C94.5209 15.8351 95.7593 14.4498 97.2705 13.6102C98.8237 12.7706 100.734 12.3509 103.001 12.3509ZM98.4039 20.7256C96.263 20.7256 94.6888 21.6491 93.6813 23.4961C92.6739 25.3432 92.1701 27.8619 92.1701 31.0523C92.1701 32.1437 92.2331 33.2142 92.359 34.2636C92.5269 35.3131 92.7998 36.2576 93.1776 37.0972C93.5554 37.9367 94.0592 38.6084 94.6888 39.1121C95.3605 39.6159 96.2001 39.8678 97.2075 39.8678C99.0126 39.8678 100.524 38.9862 101.741 37.2231C102.959 35.46 103.567 32.6894 103.567 28.9114C103.567 27.8619 103.483 26.8544 103.315 25.8889C103.189 24.8814 102.938 23.9999 102.56 23.2443C102.182 22.4887 101.657 21.88 100.986 21.4182C100.314 20.9564 99.4534 20.7256 98.4039 20.7256ZM134.315 48.2425C132.468 48.2425 130.621 48.0116 128.774 47.5498C126.968 47.0881 125.331 46.2905 123.862 45.1571C122.435 44.0236 121.259 42.5124 120.336 40.6234C119.412 38.7343 118.951 36.3626 118.951 33.508C118.951 32.4586 119.035 31.1992 119.202 29.73C119.37 28.2607 119.685 26.7495 120.147 25.1963C120.651 23.6431 121.322 22.1109 122.162 20.5996C123.044 19.0464 124.177 17.6611 125.562 16.4438C126.948 15.2264 128.627 14.2399 130.6 13.4843C132.573 12.7287 134.923 12.3509 137.652 12.3509C139.835 12.3509 141.682 12.6027 143.193 13.1065C144.704 13.6102 145.922 14.3029 146.845 15.1844C147.769 16.024 148.44 17.0105 148.86 18.1439C149.28 19.2773 149.49 20.4947 149.49 21.796C149.49 23.727 149.091 25.3642 148.294 26.7075C147.538 28.0508 146.53 29.1842 145.271 30.1078C144.054 30.9893 142.689 31.682 141.178 32.1857C139.667 32.6894 138.177 33.0882 136.708 33.3821C135.238 33.634 133.874 33.8019 132.615 33.8858C131.397 33.9278 130.453 33.9488 129.781 33.9488C129.781 34.7464 129.886 35.544 130.096 36.3416C130.348 37.0972 130.705 37.7688 131.166 38.3565C131.628 38.9442 132.237 39.427 132.992 39.8048C133.748 40.1826 134.672 40.3715 135.763 40.3715C136.854 40.3715 137.694 40.2036 138.282 39.8678C138.911 39.49 139.415 39.0912 139.793 38.6714C140.171 38.2096 140.486 37.8108 140.737 37.475C141.031 37.0972 141.409 36.9083 141.871 36.9083C142.081 36.9083 142.438 36.9712 142.941 37.0972C143.487 37.1811 144.033 37.391 144.578 37.7269C145.124 38.0627 145.607 38.5244 146.027 39.1121C146.447 39.6998 146.656 40.4555 146.656 41.379C146.656 42.5964 146.279 43.6458 145.523 44.5274C144.767 45.4089 143.781 46.1226 142.564 46.6683C141.388 47.214 140.066 47.6128 138.597 47.8647C137.127 48.1165 135.7 48.2425 134.315 48.2425ZM135.511 20.7256C134.588 20.7256 133.79 20.9984 133.118 21.5441C132.489 22.0479 131.943 22.6986 131.481 23.4961C131.061 24.2937 130.726 25.1753 130.474 26.1408C130.264 27.1063 130.096 28.0298 129.97 28.9114C132.573 28.8694 134.672 28.4286 136.267 27.589C137.904 26.7495 138.722 25.5531 138.722 23.9999C138.722 23.1603 138.45 22.4047 137.904 21.733C137.4 21.0614 136.603 20.7256 135.511 20.7256ZM173.621 28.0298C173.369 28.0298 173.075 28.0298 172.739 28.0298C172.445 27.9878 172.152 27.9459 171.858 27.9039C171.564 27.8199 171.312 27.736 171.102 27.652C170.892 27.5261 170.787 27.3792 170.787 27.2112C170.787 26.6655 170.808 26.1618 170.85 25.7C170.892 25.2383 170.913 24.7555 170.913 24.2518C170.913 23.3282 170.787 22.5726 170.535 21.9849C170.284 21.3972 169.78 21.1034 169.024 21.1034C167.849 21.1034 166.862 21.88 166.065 23.4332C165.309 24.9444 164.826 27.2322 164.616 30.2967C164.533 31.64 164.407 33.1722 164.239 34.8933C164.113 36.5724 163.987 38.2096 163.861 39.8048C163.735 41.358 163.63 42.7433 163.546 43.9607C163.462 45.178 163.42 45.9756 163.42 46.3534C163.42 46.7732 163.273 47.0881 162.979 47.298C162.685 47.5078 162.371 47.6128 162.035 47.6128H159.768C158.467 47.6128 157.396 47.4869 156.557 47.235C155.759 46.9411 155.108 46.5423 154.605 46.0386C154.143 45.5349 153.807 44.9262 153.597 44.2125C153.429 43.4569 153.345 42.5964 153.345 41.6309C153.345 41.0012 153.366 40.1196 153.408 38.9862C153.492 37.8108 153.618 36.2156 153.786 34.2007C153.954 32.1437 154.143 29.562 154.353 26.4556C154.605 23.3072 154.898 19.4242 155.234 14.8066C155.318 13.5892 155.759 12.9805 156.557 12.9805H159.012C160.188 12.9805 161.174 13.1065 161.972 13.3583C162.769 13.6102 163.42 13.967 163.924 14.4288C164.428 14.8486 164.784 15.3523 164.994 15.94C165.246 16.5277 165.414 17.1364 165.498 17.7661C166.002 16.8006 166.589 15.982 167.261 15.3103C167.975 14.5967 168.709 14.03 169.465 13.6102C170.221 13.1484 170.997 12.8336 171.795 12.6657C172.592 12.4558 173.327 12.3509 173.999 12.3509C174.796 12.3509 175.594 12.4978 176.391 12.7916C177.231 13.0855 177.987 13.5263 178.658 14.114C179.33 14.7017 179.855 15.4573 180.232 16.3808C180.652 17.3043 180.862 18.3958 180.862 19.6551C180.862 20.7885 180.694 21.859 180.358 22.8665C180.023 23.874 179.54 24.7765 178.91 25.5741C178.28 26.3297 177.504 26.9384 176.58 27.4001C175.699 27.8199 174.712 28.0298 173.621 28.0298Z" fill="#242727"/>
</svg>
